<?xml version="1.0" encoding="UTF-8" standalone="no"?>
<!--********* Copyright (c) 2024 Pareto Softare, LLC DBA Simplemaps.com ***************************************
************* Free for Commercial Use, full terms at  https://simplemaps.com/resources/svg-license ************
************* Attribution is appreciated! https://simplemaps.com *******************************************-->

<svg
   baseprofile="tiny"
   fill="#6f9c76"
   height="1000"
   stroke="#ffffff"
   stroke-linecap="round"
   stroke-linejoin="round"
   stroke-width=".5"
   version="1.2"
   viewbox="0 0 1000 1000"
   width="1000"
   id="svg44"
   sodipodi:docname="albania.svg"
   inkscape:version="1.2.2 (b0a8486541, 2022-12-01)"
   xmlns:inkscape="http://www.inkscape.org/namespaces/inkscape"
   xmlns:sodipodi="http://sodipodi.sourceforge.net/DTD/sodipodi-0.dtd"
   xmlns="http://www.w3.org/2000/svg"
   xmlns:svg="http://www.w3.org/2000/svg">
  <defs
     id="defs48" />
  <sodipodi:namedview
     id="namedview46"
     pagecolor="#ffffff"
     bordercolor="#666666"
     borderopacity="1.0"
     inkscape:showpageshadow="2"
     inkscape:pageopacity="0.0"
     inkscape:pagecheckerboard="0"
     inkscape:deskcolor="#d1d1d1"
     showgrid="false"
     inkscape:zoom="0.785"
     inkscape:cx="497.45223"
     inkscape:cy="501.27389"
     inkscape:window-width="1854"
     inkscape:window-height="1011"
     inkscape:window-x="0"
     inkscape:window-y="0"
     inkscape:window-maximized="1"
     inkscape:current-layer="features" />
  <g
     id="features">
    <path
       d="M573.4 452.3l0-0.1-5.1-7.4-1.2-3.1-0.6-4-0.1-3 0.5-2.6-2.1 0.4-3.2 1-2.9-0.6-2.7-0.9-1.4 0.1-0.9 0.5-0.6 0.7-0.9 0.2-1-1.3-1-0.2-1.2 0.5-2.3 2.9-1.4 1.2-1.6 0.6-1.9 0.4-3.2-0.1-2.6-1.1-2-0.2-2.1 0.1-1.9 0.8-1.6 1-3.4 2.7-0.7 1-0.8 0.6-0.9 0.4-1.4 0.3-0.8 0.4-0.6 0.3-1.3 1.6-17.2-6.1-3.1-2.4-8.6-9.3-6.4 0.1-1.2 1.7-2.5 2.4-1.5 0.3-1.4-0.8-2-3.3-1.6-1.8-3.8-2.3-4.2-3.5-0.7-1.3-0.4-1.2-0.3-1-1.3-1.8-0.3-0.9-0.3-1.3-0.5-2-4.8-7.2-4.4-4.9-2.7-2.2-1.9-1.2-2.6-0.1-8.9-7.1-8.1-10.1-1.8-7.6 0.2-2.2-0.7-2.3-1.1-1.7-3.4-3.8-0.5-1.3 0.3-1.1 0.7-0.8 0.9-3.8-0.6-12.9 0.9-5 0.8 0.2 1.8 0.9 2.6 1.9 5 1.2 3.2-0.4 4.1-1.3 3.5-1.9 0.7 0.5 1.4 2.6 0.9 1 1.5 1 4.7 1.5 1.4-0.5 0.8-1.2 0.1-1.2 0.2-0.8 0.7-0.6 2.8-2.1 1.5-0.4 2.3 0.1 7.9 1.4 2-0.6 1.5-1.3 0.9-1.6 0.9-3.7 1-1.3 1.7-1.2 21.7-8.9 1.8-2.7 0.1-1.8-0.1-4.3-1.1-2.1-9.7-8.5-0.4-1 0.6-0.8 1.4-0.4 2.4-0.3 2.8-0.5 2.8-1.2 2-2.7 2.9-3 2.5-1.8 3.7-6.4 0-4.3 1.6 2.1 0.1 0.8 0 1.2-0.1 1 0.2 1.5 0.6 1.6 1.8 1.5 2.4 0.3 4.1-1 2.4-1.5 1.9-2 1.3-2 1.5-1.7 3.3-1.5 4.5 0.5-0.3 0.9 1.3 5.8 6.4 9.7 1.4 4.4-0.3 2.3 5.6-0.8 3.1-1.2 2.4-1.4 0.9-1.4-0.7-0.9-0.6-0.9-0.1-1 2.5-0.5 4.7-0.1 14.1 2.6 3.7-0.7 3.9-1.3 2 0.2 0 1.7 1.8 7.6 0.4 4.3 0.1 2-1.4 2.7-5.3 5.2-2.2 2.9-1.9 4.1-0.6 3.2 1.8 22 1.1 6.4 4.8 14.1 0 2 0.1 0.7-1.3 3.1-1.9 2-3 1.8-3.3 1.4-11.1 2.5 0.9 4.3-0.7 8.1 1.6 4.5 2.5 1.2 1.8 1.8 2.4 4.7 0.5 0.9 0.7 2.3 0.5 4.9 0.4 1.7 1.6 1.3 3.8 0.7 1.7 1.1 2.7 3.8 1.1 3.1 0.3 0.7-0.1 4.1-1.5 5-2.2 4.1-3 3.8-3.2 2-3.3-1.1-0.8 6z"
       id="AL09"
       name="Dibër"
       style="fill:#e41a1a;fill-opacity:1" />
    <path
       d="M587.6 293.6l-2-0.2-3.9 1.3-3.7 0.7-14.1-2.6-4.7 0.1-2.5 0.5 0.1 1 0.6 0.9 0.7 0.9-0.9 1.4-2.4 1.4-3.1 1.2-5.6 0.8 0.3-2.3-1.4-4.4-6.4-9.7-1.3-5.8 0.3-0.9-4.5-0.5-3.3 1.5-1.5 1.7-1.3 2-1.9 2-2.4 1.5-4.1 1-2.4-0.3-1.8-1.5-0.6-1.6-0.2-1.5 0.1-1 0-1.2-0.1-0.8-1.6-2.1 2.9-5.6 0.7-0.8 0.7-0.6 0.7-0.4 0.6-0.7 0.6-0.8 1-1 4.3-3.7 0.7-1 0.3-1.5-0.2-3 0-2.3 0.2-2.2 0.7-1.6 0.5-1.6-0.1-1.9-2-5.5-1-2-2.7-2-6.7-1.2-5.3-4.9-1.9-3.1-1.5-1.1-1.3 0.2-1.6 0.9-1.7 0.8-2.6 0.1 0.1-0.6 3.3-4.6 1.3-4.1-0.5-2-1.1-2.4 0.7-2.4 6.1-8.8 1.6-1.8 2.1-1.6 2.8-1.7 4-3.3 2.4-4.6-1.7-5.2-6.8-2.9-2-0.5-1.2-1.2-0.9-1.4-1.3-1.1-1.7-0.3-5.4 0.3-25.7-12.5-3-1-5.3-0.7-3.9 3.8-13.4-0.7-1.5 0.6-1.4 1-3.3 3.4-1.4 1-1.2 0.5-0.9 0.1-0.8 0.3-0.6 0.4-1.2 1.6-5.7-0.7-3.2-1.8-1.5-1.1-0.5-1.2 0.7-2.2 0.6-2.5 0.1-1.1 0-1.3 0.2-0.9 0.4-1 0-2.6-0.8-4.2-3-10.4-0.8-4.9-0.2-3.6 0.3-2.4-0.2-7.8-0.5-2.6-0.6-1.9-3.6-4.5-0.4-1 0.4-0.9 2.1-2 0.8-1.3 0.9-3 0.6-1.3 0.9-1.1 0.8-0.9 0.9-1.2 0.6-1 1.4-3 1.5-0.5 8.6-5.1 2.1-2 0-0.1 5.6-3.9 0.5 0 10.6 0.3 5.8-1.7 8.1-10.9 4.9-3.5 5.8 3.3 4.7 5.2 11.3 6.3 3.9 4.9 0 0.1 6.4 15.4 1.2 1.8 3.1 2.9 1.1 2.4-0.1 2.5-2.3 3.6-0.3 2 1.1 1.9 3.5 3.1 1.3 1.8 0.6 2.4-0.4 4.2 0.3 2.1 2 5.1 1.8 2 2.7 0.4 4.6-0.1 2.1 1.9 3 0 2.9-1 1.7-1.1 1.2 0 3.5 0.6 28 20.6 3.8 4.1 1.8 2 4.4 6 8.5 18.7 2.5 8.1 0.6 5.4 0 9.8 1.4 5.7 7.1 18.8 1.1 6 1.1 4 0 3.9-2.4 5.6-1.8 2.4-1.7 1.2-1.4 1.7-1 3.7 0 2.2 1.2 3.7-0.2 2.3-5.8 3.5-0.2 5.1z"
       id="AL07"
       name="Kukës"
       style="fill:#e41a1a;fill-opacity:1" />
    <path
       d="M600.5 523.2l1.8 0.8 3.1 0.3 2.8-0.1 0.6 0.1 2 0.3 2.5 1.9 2.3 4.8 4.4 19.7 4.4 17.3 3.2 6.9 3.1 2.6 2.3 2 5.7 1.2 4-1.6 7.6-6.3 4.4-1.1 0.2-0.1 12 1.8 11.3 3.3 3.8 3.7 1.8 5.7 0.1 7.9 0.4 14.2-1.4 6.4-3.9 4.6 2.2 1.9 0.9 2.2 0.4 2.4 1 2.3 6.5 6.1 6 7.4 2.3 4.2 1.5 5.2 0.3 5.9-0.8 5.5-2.4 10.4-0.4 3.4-0.1 2.5-0.4 2.3-1.2 3-1.5 1.7-2.1 1.2-2.1 1.7-1.5 3.1-3 0.8-2.4 1.6-1.3 2.7 0.1 3.7-0.6 1.7-0.8 1.5-2.1 3.1-5.7 3.9-5.1-1.3-5.1-2.5-6.1 0.2-3 2-1.3 2.5-0.8 2.9-1.9 3-2 1.1-4.7 1.2-2 2.1-0.4 2.8 1 8.1 0.1 3.1-0.8 3.7-1 2.4-2.5 4.7-3.5 8.7-0.6 1.7-1.8 1.6-2.5 1.3-2.5 1.7-1.8 2.9-1 6.8 0.5 5.9-0.1 6.1-2.5 7.1-1.2 1-3.4 1-1 1.6-0.2 1.9 0.8 3.2 0.1 1.6 1 5.5-0.3 1.3-3.4 9.6-1 2.1-1.6 1.2-5.7 2.7 0-0.1-0.1-0.1-4.3-4.4-3.4-4.7-10.7-11.5-1.5-2.1-1.3-5.7-5.7-14.3-0.4-1.8-0.2-1.9 0.1-1.6 0.7-1.4 1.1-1.6 2.4-2.3 0.6-1-0.6-0.5-1.2-0.3-2-0.2-3.2-0.8-0.5-0.7-4.2-13.1-0.4-2.2 2.1-8.3-0.2-4.6-0.6-2.4-1.4-2.1-3.8-4.7-0.7-2.2 0-2.5 0.7-2.1 0.7-1.4 0.7-1.1 2.2-2.1-4-0.8-2.9-6.1-0.1-2 1-11.9-0.4-3-0.9-2-2.2-2.4-0.4-1-0.2-1.3 0.1-1.2 0.5-2.5 0.5-0.8 1.1-1.5 1.4-4.1 0-0.9-0.5-0.9 0.1-0.9-0.2-0.7-1.5-1.5-1.2-0.5-2.6-0.4-0.9-0.3-1-0.6-1-0.2-1.2 0.1-1.2 0-1.2-0.8-1.7-2-1-3.2-1.4-1.9-0.6-1.9-3.6-6-1.9-6-4.9-11.6-1.1-2.2-2.8-3.3 1.8-3.3 8.7-2.5 17.3-2.1 3.6-1.6 3-2.4 1.9-3.2 3.4-7-6.1-13.3-2.6-4.1-7.1-9.3-1.4-2.6-2.5-8.1 5.6-2.9 0.6-1.8 0.7-3.1 0.6-4.8 0.5-2.5 1.4-4 1.4-1.7 1.5-1 8-2.7 1.4-0.3 1.8-0.7 9.1-5.4 1.7-0.8 1 0 1.3 0.1 8.3 3.1 2.4 0.3 1.2-1 0.8-1.7 0.8-5.5-0.1-1.7-0.8-4.7-0.1-4.9-0.1-0.9z"
       id="AL06"
       name="Korçë"
       style="stroke:none;stroke-opacity:1;fill:#e41a1a;fill-opacity:1" />
    <path
       d="M518.5 445.4l1.3-1.6 0.6-0.3 0.8-0.4 1.4-0.3 0.9-0.4 0.8-0.6 0.7-1 3.4-2.7 1.6-1 1.9-0.8 2.1-0.1 2 0.2 2.6 1.1 3.2 0.1 1.9-0.4 1.6-0.6 1.4-1.2 2.3-2.9 1.2-0.5 1 0.2 1 1.3 0.9-0.2 0.6-0.7 0.9-0.5 1.4-0.1 2.7 0.9 2.9 0.6 3.2-1 2.1-0.4-0.5 2.6 0.1 3 0.6 4 1.2 3.1 5.1 7.4 0 0.1-0.1 0.6 1.3 9.1 2.8 11.8 1 4.4 2.9 7.7 8.4 11.9 3.5 7 1.2 6.8-0.2 5.3 1.6 4.1 4.7 2.2 0.1 0.9 0.1 4.9 0.8 4.7 0.1 1.7-0.8 5.5-0.8 1.7-1.2 1-2.4-0.3-8.3-3.1-1.3-0.1-1 0-1.7 0.8-9.1 5.4-1.8 0.7-1.4 0.3-8 2.7-1.5 1-1.4 1.7-1.4 4-0.5 2.5-0.6 4.8-0.7 3.1-0.6 1.8-5.6 2.9 2.5 8.1 1.4 2.6 7.1 9.3 2.6 4.1 6.1 13.3-3.4 7-1.9 3.2-3 2.4-3.6 1.6-17.3 2.1-8.7 2.5-1.8 3.3-8.9 2.9-7.3 0.2-1.8-0.8-0.5-0.8-0.9-2.2-1.7-1.2-1.9-0.4-3.4 0-2.1-0.6-5.1-2.3 2.1-3.5-1.7-1.2-2.5-1.4-5.2-1.4-2.5-1.5-2-2-5.5-9.3-2.1-1.8-2.7-1-3.6-0.4-3.2-1-1-1 0-1.3 0.7-2.8 0-1.3-0.1-1.4-0.7-2.8 0-1.1 0.1-0.8 0.8-2.1-0.8-1.3-0.6-0.4-1.9-0.7-2 0.7-5.5 3.7-18.2-2.1-4.9 1.7-9.2-2.6-1.3-1.1-2-2-2.1-4.1-0.5-1.8-0.2-1.8 0.1-1.6 1-5.3 0-1.5-0.6-7.2 0.2-1 1.8-3.5 0.2-5.8-3-1.2-0.9 0.2-1.7 0.1-1.7-0.9-2.3-1.9-2.3-0.4-8.1 0.6-5.6-1.6-3.2-1.9-1.9-2.5-1.1-2.7-0.4-2-0.1-1.2 0.4-1.8 4.7 0.9 0.8-0.8 0.7-1.3 0.1-2.6 0.2-2.3 0.7-3.1 1.9-1.9 5.3-2.6 1.4-1.4 0.8-1.3 0.4-3.2 7.3-0.6 7 0.7 4.5-0.9 2.8-1.2 1.1-1.3 0.1-0.6-0.7-0.5-1.4-0.5-0.6-0.8-0.2-0.8 5.4-4.7 10.8-4.5 4.9-1.1 10.1-5.2 1.6-1.5 6.8-7.9 2.9-4.5 3.3-4 1.8-1.3 1.4-0.1 1 1 1.5 0.7 1.9 0.4 1.4-0.4 1.3-1 3.6-3.6 1.5-1.1 3.7-0.3 3.8-7.3 5-4.3 2.3-1.1 12.2-3.4 1-1 0.6-1 1.4-3.4z"
       id="AL03"
       name="Elbasan"
       style="fill:#e41a1a;fill-opacity:1" />
    <path
       d="M565.4 716.8l4 0.8-2.2 2.1-0.7 1.1-0.7 1.4-0.7 2.1 0 2.5 0.7 2.2 3.8 4.7 1.4 2.1 0.6 2.4 0.2 4.6-2.1 8.3 0.4 2.2 4.2 13.1 0.5 0.7 3.2 0.8 2 0.2 1.2 0.3 0.6 0.5-0.6 1-2.4 2.3-1.1 1.6-0.7 1.4-0.1 1.6 0.2 1.9 0.4 1.8 5.7 14.3 1.3 5.7 1.5 2.1 10.7 11.5 3.4 4.7 4.3 4.4 0.1 0.1 0 0.1-8.5 4-5.6 0.6-12-1.8-4.2 1.1-3.5 2.1-7.6-0.9-4.3 1.9-3 3.6-2.6 4.7-1.9 5.2-0.9 5.3-3.8 0.8-11.3 0.4-2.7 0.8 1.1 2.4 3.4 17.9 1.2 1.8 5.4 5.4 10.4 17.3 0.9 5.2-1.8 5.8-3.9 4.1-3.9-0.4-4-2.4-8.5-3.3 0-0.1-0.4-1.4-2.5-3.7 0.7-7.2-0.7-2.1-1.3-1.8-1.7-1.1-1.6-0.6-3.1 0-2.9-0.5-0.4-5-1-2.2-2-2.4-2.2-3.1-0.9-2.3-1.4-6-1.1-1.5-4.2-3.3-5.1-5.5-1.3-0.8-1.3-0.1-2.5-1-3.9-2.9-17.7-17.7-2.5-1.2-1.5-0.2-5.7-1.6-1.4-0.2-1.4 0.3-4.5 1.5-3 0-1.7-1.1-1.5-2.2-4.7-12.5-2.2-5.2-3.2-4.9-1.1-2.3-0.3-2.9-4.2-10.2-7.4-6.5-0.6-0.9-0.6-1.3 1.4-1.3 0.4-1.2 0-1.6-0.9-3.7-1.2-2.5-1.9-3-0.6-1.3-0.2-0.9 0.4-0.4 1.8-1.5 0.7-0.9 0.1-0.4-0.3-0.4-2.7-0.8-0.9-0.6-1-1.1-4.1-5.8-6.6-6.9-0.9-1.5-0.1-0.9 1.5-1.2 3.3-3.7 1.9-2.6 1.3-2.7 0.6-2.6-0.2-1.8-0.9-2.4-3.5-5.8 3.2 0.6 0.5-0.7 0.8-1.2 6.5-13.3 1.5-1.9 6.8-5.6 1.6-1.8 1.4-2.1 1.4-2.7 1.2-1.3 1.1-0.7 3.1-0.4 7.3 4.5 4.7 0.9 5.2 0 9 4.7 4.8-1 1.7 0.3 2.3 1.5 1.2 0.5 0.8-0.1 0.3-0.6 0.3-1 0.1-0.8 0.3-1.8 4.4 1.5 2.2 2.2 1.5 2.9 1.6 1.3 2.3 0.8 3.5 0.1 1.7 0.4 1.2 1 5.2 7.2 0.6 1.1 15.8 20.5 2.6 2.5 2.1 1.2 4.9 1.2 1.5 0.2 0.8-3.4 0.7-1.4 0.1-0.6 0.4-0.8 1.1-1 2.8-1.7 6.5-1.5 2.2-0.9 1.9-1.7 0.7-3-0.1-2.5-0.5-2.6 0.3-2.1 2.1-0.9 4 0.2 9.9-1.2z"
       id="AL05"
       name="Gjirokastër"
       style="fill:#e41a1a;fill-opacity:1" />
    <path
       d="M532.9 905l-0.3-0.1-2.2-0.4-1.9 0.8-1.6 2.2 0.6 1.2 1.3 1.3 0.8 2.3-0.4 1.5-1.4 3.6-0.3 0.9 0.6 1 1.6 2 0.4 0.9 0.9 2.6 1.2 1.3 0.7 1.6-0.7 3.2-3.1 3.8-4.2 2.4-3.4 3.4-0.7 6.4-2-1.2-2-0.6-1.9 0-1.8 0.6-1.8 2-0.3 2.2 0.1 2.2-0.8 1.5-3.5 0.9-4.7-2.1-6.4-5.9-10.4-5.4-9.1-3-7.6-2.5-3.6 2.3-0.7 0.3-0.2 1.7-1.6 0-1.2-4.3 0.7-4.9 3.6-8.9-3.9-1.7-1.1-1 3.5-7.6 4.1-14.7 0.5-3.6-1.5-6.1-2.4-1.7-3.5-0.3-5-1.8-0.3-0.7-0.1-1.2-0.2-1.3-0.9-1-3.1-1.8-2.3-0.9-3.9-0.2-1.7-1.2 0-1.8 3.3-4.2 2.2-2.3 2.4-1.6-4-3.8-10.6-20.6-1.5-3.6-1.6-3.2-1.8-1.3-7.3-0.2-3.6-0.7-2.4-1.3 1.8-1.8-6.2-4.3-1 2-0.3 0.8-0.2 1.5-0.8-2.7-1.1-1.3-1.4-0.9-1.5-1.4-0.3-1.2-1.7-3.5-1.8-2.9-0.9 0.6-2.2-2.3-15-4.9-12.5-7.5-7.3-6.5-12.8-4.4-7.5-5.7-21.6-24.2-2.5-4.1-1.1-2.5-3.1-13.3-1.6-3.7-8-7.8-2.8-3.8-0.3-1.2 0-0.4-1.3-0.5 0-2 6-3.2 3.7-0.3 3.6 2.5 8.1 9.9 2.1 3.3 3 7 1.2 4.4 0.6 4 2.1 1.3 4.7-1.1 4.8-2.3 2.1-2 1.5-27-0.6-4.5-5.8-3.4-7.8-7.9-6.2-8.9-1.2-6.4 1.6 1.8 0.6 2.3 0.6 2.6 1.9-0.6 1.7 0 4.3 5 2.9-1.5 1.5-5.6 0.4-7.2-2.8-5.7-6-3.1-5.5 1.5-1.2 8.3-1.6-4.6-15.7-23.4-1.2-2.5 0.1 0 5.6-0.5 3.7-1.3 3.3 0.3 3.2 0.8 4.8 1.9 3.5 2.2 2.3-0.3 5.4-2.4 1.2-0.1 0.5 0.5 0 0.8-0.1 0.7 0.1 0.8 0.9 1.1 1.4 1.1 2.5 1.6 0.9 1.1 0.2 1.1-0.2 1.1 0.5 1.5 1.1 0.6 2.1 0.1 2.2 0.7 5.4 2.8 1.4 1 0.7 0.9 0 0.7-0.1 0.9 0.2 0.8 0.5 1.1 1.1 0.4 1.4 0.1 1.8-0.6 1.1 0 1 0.3 0.4 0.4 0.2 0.4-0.2 0.6 0.5 1.2 0.7 2.9 0.8 0.6 1.1 0.3 2.1-0.2 1.7 0.9 3 0.6 4.3 0 6.4 4.6 1.5 0.7 0.9 0.1 0.9-0.1 0.9 0.1 1.1 0.6 1.5 1.2 1.1 0.6 0.6 0.2 0.6-0.3 0.6-0.2 0.9 0.2 0.9 0.6 1.4 1.8 0.8 1.5 0.4 2.7-0.2 1.5-0.3 1-0.4 0.3-0.2 0.3 0 0.5 0.3 0.4 3.4 0.7 0.9 0.5 0.5 0.9 0 1.9-0.4 3-0.3 0.9 0.1 1.1 0.7 3.2-0.1 1.5-0.3 1.4-0.4 1.2 0 1.2 0.5 1.1 1.4 1.3 1.7 0.5 2.3-0.4 3 0.8 3.5 5.8 0.9 2.4 0.2 1.8-0.6 2.6-1.3 2.7-1.9 2.6-3.3 3.7-1.5 1.2 0.1 0.9 0.9 1.5 6.6 6.9 4.1 5.8 1 1.1 0.9 0.6 2.7 0.8 0.3 0.4-0.1 0.4-0.7 0.9-1.8 1.5-0.4 0.4 0.2 0.9 0.6 1.3 1.9 3 1.2 2.5 0.9 3.7 0 1.6-0.4 1.2-1.4 1.3 0.6 1.3 0.6 0.9 7.4 6.5 4.2 10.2 0.3 2.9 1.1 2.3 3.2 4.9 2.2 5.2 4.7 12.5 1.5 2.2 1.7 1.1 3 0 4.5-1.5 1.4-0.3 1.4 0.2 5.7 1.6 1.5 0.2 2.5 1.2 17.7 17.7 3.9 2.9 2.5 1 1.3 0.1 1.3 0.8 5.1 5.5 4.2 3.3 1.1 1.5 1.4 6 0.9 2.3 2.2 3.1 2 2.4 1 2.2 0.4 5 2.9 0.5 3.1 0 1.6 0.6 1.7 1.1 1.3 1.8 0.7 2.1-0.7 7.2 2.5 3.7 0.4 1.4 0 0.1z"
       id="AL12"
       name="Vlorë"
       style="fill:#e41a1a;fill-opacity:1" />
    <path
       d="M426.2 102.8l-1.4 3-0.6 1-0.9 1.2-0.8 0.9-0.9 1.1-0.6 1.3-0.9 3-0.8 1.3-2.1 2-0.4 0.9 0.4 1 3.6 4.5 0.6 1.9 0.5 2.6 0.2 7.8-0.3 2.4 0.2 3.6 0.8 4.9 3 10.4 0.8 4.2 0 2.6-0.4 1-0.2 0.9 0 1.3-0.1 1.1-0.6 2.5-0.7 2.2 0.5 1.2 1.5 1.1 3.2 1.8 5.7 0.7 1.2-1.6 0.6-0.4 0.8-0.3 0.9-0.1 1.2-0.5 1.4-1 3.3-3.4 1.4-1 1.5-0.6 13.4 0.7 3.9-3.8 5.3 0.7 3 1 25.7 12.5 5.4-0.3 1.7 0.3 1.3 1.1 0.9 1.4 1.2 1.2 2 0.5 6.8 2.9 1.7 5.2-2.4 4.6-4 3.3-2.8 1.7-2.1 1.6-1.6 1.8-6.1 8.8-0.7 2.4 1.1 2.4 0.5 2-1.3 4.1-3.3 4.6-0.1 0.6 2.6-0.1 1.7-0.8 1.6-0.9 1.3-0.2 1.5 1.1 1.9 3.1 5.3 4.9-9.1 8.6-14.5 7.3-2.6 1.8-2 2.2-1.9 6.1-2.2 3.2-2 1.8-3.5 2-5 5-1.6 2.3-2.7 4.9-1.2 1-1.8 0.5-8.7-0.3-2-0.7-1.2-1.1-1-1.4-0.2-1.3 0.3-1.2 1.9-1.8 0.5-0.8 0-1.2-0.6-1.3-4.4-5.6-0.9-1.5-1.7-4.5-0.6-3.2-0.5-1.4-1.3-1.3-1.4-0.1-2.4 0.7-2.7 1.6-2.1 2.5-2.3 2.1-1.6 1.9-1.2 1-1.7 0.5-1.9 0-3.4-1.3-1.8-1.3-1.6-0.8-1.4 0.1-4.3 2.2-7 0.4 2.6 5.8 0.3 1.2-0.3 1-0.8 1.1-1.6 1.6-1.9 1.4-2 0.8-3-1.1-4.1-3.4-1.8-1.1-1.9-0.2-8.3 1.3-1.8-0.1-2.1-1.1-0.8-0.6-0.3-1 0.1-1.2 0.9-1.5 0.7-1 0.3-0.7-0.3-0.5-0.7-0.3-2.6 0-1.4-0.3-1.3-0.7-0.8-0.7-0.7-0.5-0.8-0.1-3.8 0.6-2.5 1 1.1 1.3 1.1 3.4 0.8 6.3-2.6 2.9-3.2 1-4-1.7-7.8-4.8-3-1.2-2.1 0.4-1.7 2.3-0.7 3.5 0.8 3.7 13.7 10.9 0.7 3.3 0 0.1-14.5-6-3.3-2.2-4.1-1.8-15.4 4.9-0.2-3.2 0.2-7.9-1.8-3.3-2.1-2-0.6-1.2 0.2-1.3-0.2-2 0.3-1.6 0.9-1.5 0.5-2.2-1.4-7.1 1.2-1.1 1.8-0.2 1.4-1.1 1.2-5.2-1.7-2.1-0.1 0-2.1-4.6-0.8-5.9 0.3-6 1.1-5.3 4.1-9.1-0.5-2.9-0.6-0.7-3.4-4.1-13-9.7-3.5-4-2.3-4.9 0.7-3.2 1.9-2.1 4.8-5.2 1.8-2.9 19.9-31.1 0.2-1.6-0.1-4.2 0.4-2.2 2.2-5 1.1-1.8 11.6-13.5 3.1-5 4.4-3 3.7-4.3 3.2-5.1 2.7-5.7 0-0.1 1.3-4.6 2.7-2.4 3.3-1.8 2.8-3.3 0-0.1 1.2-3.6 1.3-8 1.3-4.3 3.8-6.2 6-7 2.2-2.1 4.1-3.7 5.3-2.5 5.2 2.6 3.5 6.7 1.9 7.9 0.2 3.1 0 0.6 0.2 2.4-0.4-0.3-1.1 1.7-1.6 3.7-0.4 2.1-0.5 4.7 0.2 2.1 0.7 2.8 4 9.6 7.4 5.8 3.9 1.9 4.1 0.5 2.1-0.6z"
       id="AL10"
       name="Shkodër"
       style="fill:#e41a1a;fill-opacity:1" />
    <path
       d="M390.4 532.1l-0.4 1.8 0.1 1.2 0.4 2 1.1 2.7 1.9 2.5 3.2 1.9 5.6 1.6 8.1-0.6 2.3 0.4 2.3 1.9 1.7 0.9 1.7-0.1 0.9-0.2 3 1.2-0.2 5.8-1.8 3.5-0.2 1 0.6 7.2 0 1.5-1 5.3-0.1 1.6 0.2 1.8 0.5 1.8 2.1 4.1 2 2 1.3 1.1 9.2 2.6 1.1 1.5 0.3 0.7 0.3 1.2-0.7 1.3-0.6 0.8-7.3-0.2-2.3 0.6-1.1-1.3-1-1.6-0.6-0.5-0.5-0.1-2.5 1.2-3.5 1.3-1.7 0.8-1 0.7-0.6 1.5-1 2-0.1 0.9 0.2 0.8 0.1 0.6-0.8 1.4-0.1 1.1 0.2 1.1-0.1 1-1 0.3-1.1-0.2-5.3 0-0.4 3.2 0.1 1.3 0.6 2.2 1.1 2.6 4.3 5.7 0.8 2.1-0.2 2.8-1.1 2.9-0.2 1 0 1.2 0.2 2.1 0.3 1.5 1 1.2 2.9 1.6 1.9 0.6 1.9 1.3 1.2 1 1.4 6.3 6.2 7.2 1.2 2.3-0.5 2.6-1.9 1.9-1.7 1.4-1.5 0.8-0.4 0.4 0.2 0.2 1.1 0.2 1.1 0.9 1.1 1.8 3.4 9.2 2.4 3.3 5.5 3.8 3.1 1.1 2.1 1.4 0.8 0.7 1.2 5.4-3.1 0.4-1.1 0.7-1.2 1.3-1.4 2.7-1.4 2.1-1.6 1.8-6.8 5.6-1.5 1.9-6.5 13.3-0.8 1.2-0.5 0.7-3.2-0.6-3-0.8-2.3 0.4-1.7-0.5-1.4-1.3-0.5-1.1 0-1.2 0.4-1.2 0.3-1.4 0.1-1.5-0.7-3.2-0.1-1.1 0.3-0.9 0.4-3 0-1.9-0.5-0.9-0.9-0.5-3.4-0.7-0.3-0.4 0-0.5 0.2-0.3 0.4-0.3 0.3-1 0.2-1.5-0.4-2.7-0.8-1.5-1.4-1.8-0.9-0.6-0.9-0.2-0.6 0.2-0.6 0.3-0.6-0.2-1.1-0.6-1.5-1.2-1.1-0.6-0.9-0.1-0.9 0.1-0.9-0.1-1.5-0.7-6.4-4.6-4.3 0-3-0.6-1.7-0.9-2.1 0.2-1.1-0.3-0.8-0.6-0.7-2.9-0.5-1.2 0.2-0.6-0.2-0.4-0.4-0.4-1-0.3-1.1 0-1.8 0.6-1.4-0.1-1.1-0.4-0.5-1.1-0.2-0.8 0.1-0.9 0-0.7-0.7-0.9-1.4-1-5.4-2.8-2.2-0.7-2.1-0.1-1.1-0.6-0.5-1.5 0.2-1.1-0.2-1.1-0.9-1.1-2.5-1.6-1.4-1.1-0.9-1.1-0.1-0.8 0.1-0.7 0-0.8-0.5-0.5-1.2 0.1-5.4 2.4-2.3 0.3-3.5-2.2-4.8-1.9-3.2-0.8-3.3-0.3-3.7 1.3-5.6 0.5-0.1 0-0.1-0.1 1.2-3.6 3-2.9 3.7-2.8 2.8-3 2.1-4.7 0.9-5 0.2-17.8 0.8-4.8 2-3.3 4.2-1.2 2.4-1.1-0.7-2.5-1.6-2.9-0.8-1.8 1-2.4 1.6-2.5 1.5-1.8 0.7-0.5-1.9-3.4-3.4-4.5-2.2-3.9 1.9-1.7 3.5-1.3 4.4-6.4 3.7-2.7-3.1 3.5 1.9 7-1.9 6 0 6.4 1.7 0 0.7-4.3 0 0.9 0.3 1 0.4 2.4 3-4.1 11.9-5.8 3.8-4.6 0.4-7.4-2.4-5.9-3-5.5-1.3-5.9-0.8 7.7-2.8 7-5.9 9 0-1.4-1.3-1.7 2.4-2.5 2.6-4.3 1.6-5.5-0.5-6.2-1.1-1.5-3.7-1.5-1.3-1.1 2.5-6.3 0.5-0.5 0.7-0.6 0.6 0.1 1.2-0.6 0.2-0.8-0.3-1-0.9-1.5 0.2-0.1 0.5-0.1 1.2-0.3 0.7 0.2 0.9 0.7 1.8 2.6 1.4 0.7 0.9-0.5 0.8-1.1 1.3-2 1.1-0.8 1.1-0.1 1 0.4 1 0.3 3.5 0.1 2.2-0.3 1.9-1.2 3.9-3.1 2.2-1.4 1.7-0.8 0.8 0.1 1.7 0.9 1.7 0.3 0.3 0.1 0.2 0.3 0.3 0.3 2.3 0 0.7 0.3 0.4 0.5 1.1 0.3 1.3-0.5 3.9-2.4 1.2-0.5 0.6-0.1 0.4 0.2 0.4 0.5 0.1 0.7-0.1 0.6-0.5 2.2z"
       id="AL04"
       name="Fier"
       style="fill:#e41a1a;fill-opacity:1" />
    <path
       d="M444.8 395.3l2.6 0.1 1.9 1.2 2.7 2.2 4.4 4.9 4.8 7.2 0.5 2 0.3 1.3 0.3 0.9 1.3 1.8 0.3 1 0.4 1.2 0.7 1.3 4.2 3.5 3.8 2.3 1.6 1.8 2 3.3 1.4 0.8 1.5-0.3 2.5-2.4 1.2-1.7 6.4-0.1 8.6 9.3 3.1 2.4 17.2 6.1-1.4 3.4-0.6 1-1 1-12.2 3.4-2.3 1.1-5 4.3-3.8 7.3-3.7 0.3-1.5 1.1-3.6 3.6-1.3 1-1.4 0.4-1.9-0.4-1.5-0.7-1-1-1.4 0.1-1.8 1.3-3.3 4-2.9 4.5-6.8 7.9-1.6 1.5-10.1 5.2-4.9 1.1-10.8 4.5-5.4 4.7 0.2 0.8 0.6 0.8 1.4 0.5 0.7 0.5-0.1 0.6-1.1 1.3-2.8 1.2-4.5 0.9-7-0.7-7.3 0.6-0.4 3.2-0.8 1.3-1.4 1.4-5.3 2.6-1.9 1.9-0.7 3.1-0.2 2.3-0.1 2.6-0.7 1.3-0.8 0.8-4.7-0.9 0.5-2.2 0.1-0.6-0.1-0.7-0.4-0.5-0.4-0.2-0.6 0.1-1.2 0.5-3.9 2.4-1.3 0.5-1.1-0.3-0.4-0.5-0.7-0.3-2.3 0-0.3-0.3-0.2-0.3-0.3-0.1-1.7-0.3-1.7-0.9-0.8-0.1-1.7 0.8-2.2 1.4-3.9 3.1-1.9 1.2-2.2 0.3-3.5-0.1-1-0.3-1-0.4-1.1 0.1-1.1 0.8-1.3 2-0.8 1.1-0.9 0.5-1.4-0.7-1.8-2.6-0.9-0.7-0.7-0.2-1.2 0.3-0.5 0.1-0.2 0.1 0.9 1.5 0.3 1-0.2 0.8-1.2 0.6-0.6-0.1-0.7 0.6-0.5 0.5-2.5 6.3-1.7-3.4 0.2-1.6 0.9-1.4 2.5-22.9-1.2-4.8-1.3-2-0.9-2.4 0.1-2 5-2.2 0.8-3.4 0-4.1 0.3-3.4 9.3-15 1.6-5.8-0.2-1.2 0.1 0 5.6-0.7 6.2 2.7 4.3 3 4.5-8.4 5.9-5.1 1.4-2.3 0.7-3.3 0.1-3.5-0.2-3.8 0.5-5.1-0.1-2.3-0.5-1.4-2.2-1-1.2-1.2-1.3-3-0.2-3.6 0.5-17.1 5.9-1.3 4.6 1.2 1.4-0.7 1.1-1.4 0.7-1.6 1.1-1.4 0.9 0.7 0.7 1.7 0.7 5 0.5 1.5 0.7 1.4 1.1 0.8 0.6 0.7 0.6 0.9 0.5 1.6 0.9 1.8 1.4 0.8 2.7 0.1 2-0.6 2.3-1.2 6.6-4.7 9.4-3.8 1.1-0.8 0.5-1.2 0.2-1.1 0.6-0.9 0.9 0.4 2.2 1.9 1.8 0.2 2-0.8 3.9-3.8 1.8-2.4 3-5.7 0.6-1.6 0.3-1.7 0.2-3.3z"
       id="AL11"
       name="Tiranë"
       style="fill:#e41a1a;fill-opacity:1" />
    <path
       d="M427.8 378.1l8.1 10.1 8.9 7.1-0.2 3.3-0.3 1.7-0.6 1.6-3 5.7-1.8 2.4-3.9 3.8-2 0.8-1.8-0.2-2.2-1.9-0.9-0.4-0.6 0.9-0.2 1.1-0.5 1.2-1.1 0.8-9.4 3.8-6.6 4.7-2.3 1.2-2 0.6-2.7-0.1-1.4-0.8-0.9-1.8-0.5-1.6-0.6-0.9-0.6-0.7-1.1-0.8-0.7-1.4-0.5-1.5-0.7-5-0.7-1.7-0.9-0.7-1.1 1.4-0.7 1.6-1.1 1.4-1.4 0.7-4.6-1.2-5.9 1.3-0.5 17.1 0.2 3.6 1.3 3 1.2 1.2 2.2 1 0.5 1.4 0.1 2.3-0.5 5.1 0.2 3.8-0.1 3.5-0.7 3.3-1.4 2.3-5.9 5.1-4.5 8.4-4.3-3-6.2-2.7-5.6 0.7-0.1 0-0.6-4.9-2.3-5.3-3.4-3.7-3.7-1.4-4.9 0-4.2-0.8-2.9-2.6-1-5.8 0-12.4-0.8-2.7-3.4-3.2-0.6-3.4 3 3.9 5-0.2 3.8-4.2-1-7.8 5.4-3 5.6-4.6 4.4-6.3 1.8-8.1-0.6-5-1.6-1.9-2.4-0.7-3.2-1.6-3.2-3.1-3.7-6.2-2.5-3.3 19.8 2.7 6.4-2 0.7 0.6 7.1 3.9 0.9-1.8 0.4-0.4 0.8-0.4 3.4-0.4 5.1-2.1 1.3 0.1 3.8 2.4 1 0.9 2 2.5 1.2 1.2 1.6 1.1 2.9 0.3 3.6-0.4 7-2.3 2.8-2.1 1.5-1.8 0.3-1.3 0.6-1.1 1.3-1 1.1 0.1 1.3 0.8 2 2.5 2.1 2 1.7 1.3 5.9 0.4z"
       id="AL02"
       name="Durrës"
       style="fill:#e41a1a;fill-opacity:1" />
    <path
       d="M512 277.1l0 4.3-3.7 6.4-2.5 1.8-2.9 3-2 2.7-2.8 1.2-2.8 0.5-2.4 0.3-1.4 0.4-0.6 0.8 0.4 1 9.7 8.5 1.1 2.1 0.1 4.3-0.1 1.8-1.8 2.7-21.7 8.9-1.7 1.2-1 1.3-0.9 3.7-0.9 1.6-1.5 1.3-2 0.6-7.9-1.4-2.3-0.1-1.5 0.4-2.8 2.1-0.7 0.6-0.2 0.8-0.1 1.2-0.8 1.2-1.4 0.5-4.7-1.5-1.5-1-0.9-1-1.4-2.6-0.7-0.5-3.5 1.9-4.1 1.3-3.2 0.4-5-1.2-2.6-1.9-1.8-0.9-0.8-0.2-0.9 5 0.6 12.9-0.9 3.8-0.7 0.8-0.3 1.1 0.5 1.3 3.4 3.8 1.1 1.7 0.7 2.3-0.2 2.2 1.8 7.6-5.9-0.4-1.7-1.3-2.1-2-2-2.5-1.3-0.8-1.1-0.1-1.3 1-0.6 1.1-0.3 1.3-1.5 1.8-2.8 2.1-7 2.3-3.6 0.4-2.9-0.3-1.6-1.1-1.2-1.2-2-2.5-1-0.9-3.8-2.4-1.3-0.1-5.1 2.1-3.4 0.4-0.8 0.4-0.4 0.4-0.9 1.8-7.1-3.9-0.7-0.6 2-0.6 4.4-10.4 1.6 0 0.1 3.3 0.9 1.8 1.6 0.3 2.2-1.1-1.8-8.1-1.1-2.2-1.9 2-1-2.4-6.7-6.1 4.6-8.2-0.4-9.5-1.2-10.2 0.1-5.4 4.1 1.4 2.1-4 0.2-6.4-1.8-5.8-1.5 0.1-12.6-5.2 0-0.1-0.7-3.3-13.7-10.9-0.8-3.7 0.7-3.5 1.7-2.3 2.1-0.4 3 1.2 7.8 4.8 4 1.7 3.2-1 2.6-2.9-0.8-6.3-1.1-3.4-1.1-1.3 2.5-1 3.8-0.6 0.8 0.1 0.7 0.5 0.8 0.7 1.3 0.7 1.4 0.3 2.6 0 0.7 0.3 0.3 0.5-0.3 0.7-0.7 1-0.9 1.5-0.1 1.2 0.3 1 0.8 0.6 2.1 1.1 1.8 0.1 8.3-1.3 1.9 0.2 1.8 1.1 4.1 3.4 3 1.1 2-0.8 1.9-1.4 1.6-1.6 0.8-1.1 0.3-1-0.3-1.2-2.6-5.8 7-0.4 4.3-2.2 1.4-0.1 1.6 0.8 1.8 1.3 3.4 1.3 1.9 0 1.7-0.5 1.2-1 1.6-1.9 2.3-2.1 2.1-2.5 2.7-1.6 2.4-0.7 1.4 0.1 1.3 1.3 0.5 1.4 0.6 3.2 1.7 4.5 0.9 1.5 4.4 5.6 0.6 1.3 0 1.2-0.5 0.8-1.9 1.8-0.3 1.2 0.2 1.3 1 1.4 1.2 1.1 2 0.7 8.7 0.3 1.8-0.5 1.2-1 2.7-4.9 1.6-2.3 5-5 3.5-2 2-1.8 2.2-3.2 1.9-6.1 2-2.2 2.6-1.8 14.5-7.3 9.1-8.6 6.7 1.2 2.7 2 1 2 2 5.5 0.1 1.9-0.5 1.6-0.7 1.6-0.2 2.2 0 2.3 0.2 3-0.3 1.5-0.7 1-4.3 3.7-1 1-0.6 0.8-0.6 0.7-0.7 0.4-0.7 0.6-0.7 0.8-2.9 5.6z"
       id="AL08"
       name="Lezhë"
       style="fill:#e41a1a;fill-opacity:1" />
    <path
       d="M531.5 631.3l2.8 3.3 1.1 2.2 4.9 11.6 1.9 6 3.6 6 0.6 1.9 1.4 1.9 1 3.2 1.7 2 1.2 0.8 1.2 0 1.2-0.1 1 0.2 1 0.6 0.9 0.3 2.6 0.4 1.2 0.5 1.5 1.5 0.2 0.7-0.1 0.9 0.5 0.9 0 0.9-1.4 4.1-1.1 1.5-0.5 0.8-0.5 2.5-0.1 1.2 0.2 1.3 0.4 1 2.2 2.4 0.9 2 0.4 3-1 11.9 0.1 2 2.9 6.1-9.9 1.2-4-0.2-2.1 0.9-0.3 2.1 0.5 2.6 0.1 2.5-0.7 3-1.9 1.7-2.2 0.9-6.5 1.5-2.8 1.7-1.1 1-0.4 0.8-0.1 0.6-0.7 1.4-0.8 3.4-1.5-0.2-4.9-1.2-2.1-1.2-2.6-2.5-15.8-20.5-0.6-1.1-5.2-7.2-1.2-1-1.7-0.4-3.5-0.1-2.3-0.8-1.6-1.3-1.5-2.9-2.2-2.2-4.4-1.5-0.3 1.8-0.1 0.8-0.3 1-0.3 0.6-0.8 0.1-1.2-0.5-2.3-1.5-1.7-0.3-4.8 1-9-4.7-5.2 0-4.7-0.9-7.3-4.5-1.2-5.4-0.8-0.7-2.1-1.4-3.1-1.1-5.5-3.8-2.4-3.3-3.4-9.2-1.1-1.8-1.1-0.9-1.1-0.2-0.2-0.2 0.4-0.4 1.5-0.8 1.7-1.4 1.9-1.9 0.5-2.6-1.2-2.3-6.2-7.2-1.4-6.3-1.2-1-1.9-1.3-1.9-0.6-2.9-1.6-1-1.2-0.3-1.5-0.2-2.1 0-1.2 0.2-1 1.1-2.9 0.2-2.8-0.8-2.1-4.3-5.7-1.1-2.6-0.6-2.2-0.1-1.3 0.4-3.2 5.3 0 1.1 0.2 1-0.3 0.1-1-0.2-1.1 0.1-1.1 0.8-1.4-0.1-0.6-0.2-0.8 0.1-0.9 1-2 0.6-1.5 1-0.7 1.7-0.8 3.5-1.3 2.5-1.2 0.5 0.1 0.6 0.5 1 1.6 1.1 1.3 2.3-0.6 7.3 0.2 0.6-0.8 0.7-1.3-0.3-1.2-0.3-0.7-1.1-1.5 4.9-1.7 18.2 2.1 5.5-3.7 2-0.7 1.9 0.7 0.6 0.4 0.8 1.3-0.8 2.1-0.1 0.8 0 1.1 0.7 2.8 0.1 1.4 0 1.3-0.7 2.8 0 1.3 1 1 3.2 1 3.6 0.4 2.7 1 2.1 1.8 5.5 9.3 2 2 2.5 1.5 5.2 1.4 2.5 1.4 1.7 1.2-2.1 3.5 5.1 2.3 2.1 0.6 3.4 0 1.9 0.4 1.7 1.2 0.9 2.2 0.5 0.8 1.8 0.8 7.3-0.2 8.9-2.9z"
       id="AL01"
       name="Berat"
       style="fill:#e41a1a;fill-opacity:1" />
  </g>
  <g
     id="points">
    <circle
       class="39.78790331404664|19.36026484422467"
       cx="319.9"
       cy="910.1"
       id="0" />
    <circle
       class="40.995023464799225|20.242588254644257"
       cx="520"
       cy="550.6"
       id="1" />
    <circle
       class="42.50392365323996|20.948446982979927"
       cx="680.1"
       cy="91.9"
       id="2" />
  </g>
  <g
     id="label_points">
    <circle
       class="Dibër"
       cx="516.6"
       cy="378.8"
       id="circle19" />
    <circle
       class="Kukës"
       cx="553.2"
       cy="217.9"
       id="circle21" />
    <circle
       class="Korçë"
       cx="616.2"
       cy="653.6"
       id="circle23" />
    <circle
       class="Elbasan"
       cx="506.2"
       cy="535"
       id="circle25" />
    <circle
       class="Gjirokastër"
       cx="511"
       cy="794.3"
       id="circle27" />
    <circle
       class="Vlorë"
       cx="378.8"
       cy="743.3"
       id="circle29" />
    <circle
       class="Shkodër"
       cx="372.8"
       cy="192.2"
       id="circle31" />
    <circle
       class="Fier"
       cx="368.2"
       cy="621.7"
       id="circle33" />
    <circle
       class="Tiranë"
       cx="416.4"
       cy="466"
       id="circle35" />
    <circle
       class="Durrës"
       cx="359.8"
       cy="429.5"
       id="circle37" />
    <circle
       class="Lezhë"
       cx="429.2"
       cy="302.2"
       id="circle39" />
    <circle
       class="Berat"
       cx="466.6"
       cy="651.9"
       id="circle41" />
  </g>
</svg>
